<?xml version="1.0" standalone="no"?><!DOCTYPE svg PUBLIC "-//W3C//DTD SVG 1.1//EN" "http://www.w3.org/Graphics/SVG/1.1/DTD/svg11.dtd"><svg t="1686704409956" class="icon" viewBox="0 0 1024 1024" version="1.1" xmlns="http://www.w3.org/2000/svg" p-id="699" xmlns:xlink="http://www.w3.org/1999/xlink" width="200" height="200"><path d="M279.04 714.24a42.666667 42.666667 0 1 1 53.461333-66.474667l90.453334 72.789334a42.666667 42.666667 0 0 1 13.994666 45.952c-11.648 37.205333-20.266667 65.066667-25.856 83.541333l-5.973333 20.181333c-3.669333 21.162667-18.773333 38.144-42.709333 38.144a994.133333 994.133333 0 0 1-15.786667-5.461333C189.226667 838.698667 85.333333 684.885333 85.333333 511.957333 85.333333 276.352 276.352 85.333333 512 85.333333s426.666667 191.018667 426.666667 426.666667a426.666667 426.666667 0 0 1-260.437334 392.96c-5.802667 2.304-11.349333 3.413333-16.64 3.413333-23.978667 0-39.04-16.981333-42.112-35.882666a3806.933333 3806.933333 0 0 0-16.213333-53.930667 30942.72 30942.72 0 0 0-56.149333-179.029333 42.666667 42.666667 0 0 1 21.376-50.901334c50.346667-25.514667 71.509333-51.072 71.509333-76.672 0-13.909333-5.333333-27.648-15.872-40.362666a42.666667 42.666667 0 0 1-8.618667-37.632l0.768-3.072-5.546666 3.328a42.666667 42.666667 0 0 1-37.034667 3.328A174.805333 174.805333 0 0 0 512 426.624c-21.930667 0-42.922667 3.84-61.696 10.922667a42.666667 42.666667 0 0 1-37.034667-3.328l-5.546666-3.328 0.768 3.072a42.666667 42.666667 0 0 1-8.618667 37.632c-10.538667 12.714667-15.872 26.453333-15.872 40.362666 0 25.6 21.12 51.157333 71.509333 76.672a42.666667 42.666667 0 1 1-38.570666 76.117334C340.778667 626.176 298.666667 575.274667 298.666667 512c0-27.178667 7.808-53.205333 22.229333-76.458667L299.946667 351.658667c-9.216-36.864 30.72-66.474667 63.317333-46.933334l77.226667 46.293334A264.277333 264.277333 0 0 1 512 341.333333c24.661333 0 48.768 3.285333 71.552 9.685334l77.184-46.293334c32.554667-19.541333 72.533333 10.069333 63.317333 46.933334l-20.949333 83.882666A144.213333 144.213333 0 0 1 725.333333 511.957333c0 53.845333-30.506667 98.730667-86.485333 134.698667a26941.482667 26941.482667 0 0 1 49.322667 157.738667A341.333333 341.333333 0 0 0 512 170.666667a341.333333 341.333333 0 0 0-176.128 633.728l11.008-35.584-67.84-54.613334z" p-id="700" fill="#32ea3e"></path></svg>