<?xml version="1.0" standalone="no"?><!DOCTYPE svg PUBLIC "-//W3C//DTD SVG 1.1//EN" "http://www.w3.org/Graphics/SVG/1.1/DTD/svg11.dtd"><svg t="1683956872140" class="icon" viewBox="0 0 1024 1024" version="1.1" xmlns="http://www.w3.org/2000/svg" p-id="1401" xmlns:xlink="http://www.w3.org/1999/xlink" width="200" height="200"><path d="M846.506667 540.586667a194.56 194.56 0 0 0-42.666667-49.706667A41.386667 41.386667 0 0 0 810.666667 469.333333a42.666667 42.666667 0 0 0-23.04-37.76A262.186667 262.186667 0 0 0 789.333333 405.333333a277.333333 277.333333 0 1 0-554.666666 0 210.986667 210.986667 0 0 0 1.92 26.24 42.666667 42.666667 0 0 0-17.066667 59.093334 194.346667 194.346667 0 0 0-41.173333 49.92c-42.666667 75.52-32.64 163.413333 24.32 196.48a102.826667 102.826667 0 0 0 14.08 6.4A104.533333 104.533333 0 0 0 213.333333 768c0 70.613333 76.586667 128 170.666667 128a197.546667 197.546667 0 0 0 128-42.666667 198.4 198.4 0 0 0 128 42.666667c94.293333 0 170.666667-57.386667 170.666667-128a100.48 100.48 0 0 0-2.986667-23.893333 97.92 97.92 0 0 0 10.666667-5.12c59.093333-34.986667 71.68-122.88 28.16-198.4zM512 213.333333a192 192 0 0 1 192 192 195.413333 195.413333 0 0 1-8.32 56.32A593.493333 593.493333 0 0 1 512 490.666667a593.066667 593.066667 0 0 1-183.466667-29.013334A188.373333 188.373333 0 0 1 320 405.333333a192 192 0 0 1 192-192z m263.893333 451.84a18.346667 18.346667 0 0 1-8.106666 1.706667 70.4 70.4 0 0 1-46.72-25.813333 213.333333 213.333333 0 0 1-42.666667 89.813333c29.866667 8.746667 46.933333 26.24 46.933333 37.12 0 15.146667-32.213333 42.666667-85.333333 42.666667a106.666667 106.666667 0 0 1-77.866667-28.16 186.666667 186.666667 0 0 1-100.053333 0A106.666667 106.666667 0 0 1 384 810.666667c-52.906667 0-85.333333-27.52-85.333333-42.666667 0-10.88 17.493333-28.373333 47.146666-37.12a213.333333 213.333333 0 0 1-44.16-99.84 76.586667 76.586667 0 0 1-51.2 33.066667 8.533333 8.533333 0 0 1-5.333333-1.066667c-8.96-5.12-15.786667-40.746667 6.826667-79.786667a103.253333 103.253333 0 0 1 44.16-42.666666c21.333333 7.253333 43.946667 13.013333 66.56 18.133333v93.866667h85.333333v-79.786667c21.333333 1.92 42.666667 3.2 64 3.2a682.666667 682.666667 0 0 0 213.333333-34.56 93.653333 93.653333 0 0 1 46.08 42.666667c23.68 38.186667 16 74.24 4.48 81.066666z" p-id="1402" fill="#d81e06"></path></svg>