<?xml version="1.0" standalone="no"?><!DOCTYPE svg PUBLIC "-//W3C//DTD SVG 1.1//EN" "http://www.w3.org/Graphics/SVG/1.1/DTD/svg11.dtd"><svg t="1683893048769" class="icon" viewBox="0 0 1024 1024" version="1.1" xmlns="http://www.w3.org/2000/svg" p-id="14851" xmlns:xlink="http://www.w3.org/1999/xlink" width="200" height="200"><path d="M640 320a64 64 0 1 1 64 64 64 64 0 0 1-64-64z m64-106.666667a106.666667 106.666667 0 0 0-106.666667 106.666667c0 18.133333 0 36.48-2.346666 55.893333l-8.32 98.133334-96-21.333334a659.84 659.84 0 0 1-277.333334-138.453333V320a490.666667 490.666667 0 0 0 163.626667 365.44l70.826667 64-64 57.6A490.666667 490.666667 0 0 0 810.666667 320a106.666667 106.666667 0 0 0-106.666667-106.666667M160.853333 128A576 576 0 0 0 509.866667 368.853333c1.28-16.213333 2.133333-32.426667 2.133333-48.853333a192 192 0 0 1 384 0A576 576 0 0 1 128 863.146667a576 576 0 0 0 192-114.133334A576 576 0 0 1 160.853333 128z" p-id="14852" fill="#ffcccc"></path></svg>