<?xml version="1.0" standalone="no"?><!DOCTYPE svg PUBLIC "-//W3C//DTD SVG 1.1//EN" "http://www.w3.org/Graphics/SVG/1.1/DTD/svg11.dtd"><svg t="1683957448048" class="icon" viewBox="0 0 1024 1024" version="1.1" xmlns="http://www.w3.org/2000/svg" p-id="1828" id="mx_n_1683957448050" xmlns:xlink="http://www.w3.org/1999/xlink" width="200" height="200"><path d="M670.933333 480.853333a126.72 126.72 0 0 0-28.8-71.893333A138.88 138.88 0 0 0 533.333333 364.8a183.893333 183.893333 0 0 0-18.56 0 119.68 119.68 0 0 0-27.093333-35.626667A130.346667 130.346667 0 0 0 400 298.666667c-67.413333 0-147.413333 39.466667-209.493333 110.293333A320 320 0 0 0 106.666667 618.666667c0 117.76 143.36 213.333333 320 213.333333s320-95.573333 320-213.333333a178.346667 178.346667 0 0 0-75.733334-137.813334zM426.666667 746.666667c-134.186667 0-234.666667-67.626667-234.666667-128a224.213333 224.213333 0 0 1 62.72-152.32c52.48-59.946667 111.146667-81.28 145.28-81.28a46.72 46.72 0 0 1 31.36 9.386666c14.506667 12.8 19.2 44.586667 8.32 83.84A198.613333 198.613333 0 0 1 533.333333 450.133333a60.586667 60.586667 0 0 1 43.946667 14.506667 68.053333 68.053333 0 0 1 4.906667 60.8C631.253333 550.613333 661.333333 585.6 661.333333 618.666667c0 60.373333-100.266667 128-234.666666 128z m490.666666-362.666667a42.666667 42.666667 0 0 1-85.333333 0 170.666667 170.666667 0 0 0-170.666667-170.666667 42.666667 42.666667 0 0 1 0-85.333333 256 256 0 0 1 256 256z m-128 0a42.666667 42.666667 0 0 1-85.333333 0 42.666667 42.666667 0 0 0-42.666667-42.666667 42.666667 42.666667 0 0 1 0-85.333333 128 128 0 0 1 128 128z" p-id="1829" fill="#fdf66d"></path></svg>